
<svg xmlns="http://www.w3.org/2000/svg" width="56" height="56" viewBox="0 0 56 56" fill="none">
  <g clip-path="url(#clip0_20_12)">
    <rect width="56" height="56" rx="5.6" fill="#189464"/>
    <rect y="34.272" width="56" height="21.728" fill="#008858"/>
    <rect x="34.272" y="34.272" width="53.4495" height="34.2279" transform="rotate(-90 34.272 34.272)" fill="#53AD85"/>
    <rect x="34.272" y="87.7215" width="53.4495" height="34.2279" transform="rotate(-90 34.272 87.7215)" fill="#189464"/>
    <path d="M13.0592 18.4441C12.7036 18.4441 12.3649 18.3764 12.0432 18.2409C11.7299 18.097 11.4547 17.9107 11.2177 17.6821C10.9806 17.445 10.7943 17.1699 10.6589 16.8566C10.5234 16.5349 10.4557 16.1962 10.4557 15.8406V10.6336C10.4557 10.278 10.5234 9.9436 10.6589 9.63033C10.7943 9.3086 10.9806 9.03343 11.2177 8.80483C11.4547 8.56777 11.7299 8.3815 12.0432 8.24604C12.3649 8.1021 12.7036 8.03014 13.0592 8.03014H24.5018C24.5018 8.03014 24.5018 10.3489 24.5018 10.6336H21.8983H13.0592V15.8406H21.8983C22.2539 15.8406 22.5884 15.9083 22.9016 16.0438C23.2234 16.1793 23.5028 16.3655 23.7398 16.6026C23.9769 16.8397 24.1632 17.1191 24.2986 17.4408C24.4341 17.7541 24.5018 18.0885 24.5018 18.4441V23.6384C24.5018 23.994 24.4341 24.3326 24.2986 24.6544C24.1632 24.9676 23.9769 25.2428 23.7398 25.4799C23.5028 25.7169 23.2234 25.9032 22.9016 26.0387C22.5884 26.1741 22.2539 26.2419 21.8983 26.2419H10.2017C10.2017 26.2419 10.2017 23.9231 10.2017 23.6384H21.8983V18.4441H13.0592Z" fill="white"/>
  </g>
  <defs>
    <clipPath id="clip0_20_12">
      <rect width="56" height="56" rx="5.6" fill="white"/>
    </clipPath>
  </defs>
</svg>