<svg xmlns="http://www.w3.org/2000/svg" width="29" height="28" viewBox="0 0 29 28" fill="none">
  <path d="M7.50722 19.8276L13.2102 23.1202C13.9364 23.5394 14.8487 23.0415 14.8889 22.204L15.2671 14.3245C15.2854 13.9439 15.4959 13.5987 15.8259 13.4082L21.8145 9.95066C22.5612 9.51957 22.5612 8.44185 21.8145 8.01076L16.2009 4.76971C15.3346 4.26954 14.2672 4.26954 13.4009 4.76971L7.50722 8.17242C6.64089 8.67259 6.10722 9.59695 6.10722 10.5973L6.10722 17.4027C6.10722 18.403 6.64089 19.3274 7.50722 19.8276Z" stroke="currentColor" stroke-width="1.4" stroke-linecap="round" stroke-linejoin="round"/>
  <path d="M8.60114 10.3786L10.8984 11.5619L13.1958 12.7452" stroke="currentColor" stroke-width="1.4" stroke-linecap="round" stroke-linejoin="round"/>
  <path d="M23.4946 12.7452L23.4946 17.4027C23.4946 18.403 22.9609 19.3274 22.0946 19.8276L18.061 22.1563" stroke="currentColor" stroke-width="1.4" stroke-linecap="round" stroke-linejoin="round"/>
</svg>