<svg width="593" height="108" viewBox="0 0 593 108" fill="none" xmlns="http://www.w3.org/2000/svg">
<path d="M360.541 12.4402C360.541 5.59404 366.091 0.0441284 372.937 0.0441284H432.077V13.2701H377.609V72.3538H432.077V85.5798H372.937C366.091 85.5798 360.541 80.0298 360.541 73.1837V12.4402Z" fill="black"/>
<path d="M18.2297 70.1536V0.184814H0.614258V73.2388C0.614258 77.0586 1.64182 80.0704 3.69697 82.2742C5.75212 84.4779 8.7614 85.5798 12.7249 85.5798H62.5987V70.1536H18.2297Z" fill="black"/>
<path fill-rule="evenodd" clip-rule="evenodd" d="M120.84 22.663C124.216 22.663 127.079 24.1689 129.427 27.1806C131.776 30.1924 132.95 33.7919 132.95 37.979V70.2638C132.95 74.5978 131.776 78.1973 129.427 81.0621C127.005 84.0739 124.143 85.5798 120.84 85.5798H82.1959C78.9664 85.5798 76.0672 84.0739 73.4983 81.0621C71.0027 78.1238 69.755 74.5244 69.755 70.2638V37.979C69.755 33.8653 71.0027 30.2659 73.4983 27.1806C75.9204 24.1689 78.8196 22.663 82.1959 22.663H120.84ZM86.82 36.1058H115.885V72.137H86.82V36.1058Z" fill="black"/>
<path fill-rule="evenodd" clip-rule="evenodd" d="M202.311 27.1806C199.963 24.1689 197.1 22.663 193.724 22.663H155.08C151.704 22.663 148.804 24.1689 146.382 27.1806C143.887 30.2659 142.639 33.8653 142.639 37.979V70.2638C142.639 74.5244 143.887 78.1238 146.382 81.0621C148.951 84.0739 151.85 85.5798 155.08 85.5798H193.724C197.027 85.5798 199.889 84.0739 202.311 81.0621C204.66 78.1973 205.834 74.5978 205.834 70.2638V37.979C205.834 33.7919 204.66 30.1924 202.311 27.1806ZM188.769 36.1058H159.704V72.137H188.769V36.1058Z" fill="black"/>
<path d="M275.526 37.979C275.526 33.7919 274.351 30.1924 272.003 27.1806C269.654 24.1689 266.791 22.663 263.415 22.663H217.285V85.5798H234.349V36.3262H258.571V85.5798H275.526V37.979Z" fill="black"/>
<path fill-rule="evenodd" clip-rule="evenodd" d="M335.198 22.663C338.501 22.663 341.363 23.9118 343.786 26.4093C346.134 28.9069 347.309 31.9554 347.309 35.5549V95.0559C347.309 98.7288 346.134 101.777 343.786 104.201C341.363 106.699 338.501 107.948 335.198 107.948H288.517V94.6151H330.244V75.3324H298.536C295.086 75.3324 292.224 74.0836 289.948 71.586C287.6 69.015 286.425 65.9665 286.425 62.4405V35.5549C286.425 31.9554 287.6 28.9069 289.948 26.4093C292.37 23.9118 295.233 22.663 298.536 22.663H335.198ZM303.27 35.8854H330.244V62.1099H303.27V35.8854Z" fill="black"/>
<path fill-rule="evenodd" clip-rule="evenodd" d="M501.05 27.1807C498.701 24.1689 495.839 22.663 492.463 22.663H453.819C450.442 22.663 447.543 24.1689 445.121 27.1807C442.625 30.2659 441.378 33.8654 441.378 37.979V70.2638C441.378 74.5244 442.625 78.1239 445.121 81.0622C447.69 84.074 450.589 85.5798 453.819 85.5798H492.463C495.765 85.5798 498.628 84.074 501.05 81.0622C503.399 78.1973 504.573 74.5979 504.573 70.2638V37.979C504.573 33.7919 503.399 30.1925 501.05 27.1807ZM487.508 36.1058H458.443V72.137H487.508V36.1058Z" fill="black"/>
<path d="M540.468 44.6398L512.254 85.4391H532.291L550.562 59.0716L568.933 85.4392L592.294 85.4391L585.319 75.3526L572.309 56.6803L562.29 42.1356L552.233 27.5708L552.219 27.5909L546.064 18.6383L533.224 0.0441457L533.282 0.0441284L509.811 0.0441895L522.203 17.9888L522.117 18.0478L540.468 44.6398Z" fill="black"/>
<path d="M591.413 0.0441284L572.35 27.6503L572.309 27.5909L562.293 13.0209L571.265 0.0441284H591.413Z" fill="black"/>
</svg>
